# ProBuilder 4.2.3
# https://unity3d.com/unity/features/worldbuilding/probuilder
# 7/22/2021 4:16:55 PM

mtllib ./CX.mtl
o CX

g Cylinder
v 30.75 2.961914 -3.228516
v 30.75 3.761914 -3.228516
v 30.8234 2.961914 -2.483271
v 30.8234 3.761914 -2.483271
v 31.04078 2.961914 -1.766665
v 31.04078 3.761914 -1.766665
v 31.39379 2.961914 -1.106237
v 31.39379 3.761914 -1.106237
v 31.86885 2.961914 -0.5273678
v 31.86885 3.761914 -0.5273678
v 32.44772 2.961914 -0.05230188
v 32.44772 3.761914 -0.05230188
v 33.10815 2.961914 0.300704
v 33.10815 3.761914 0.300704
v 33.82475 2.961914 0.518084
v 33.82475 3.761914 0.518084
v 34.57 2.961914 0.5914843
v 34.57 3.761914 0.5914843
v 35.31525 2.961914 0.518084
v 35.31525 3.761914 0.518084
v 36.03185 2.961914 0.3007042
v 36.03185 3.761914 0.3007042
v 36.69228 2.961914 -0.05230165
v 36.69228 3.761914 -0.05230165
v 37.27115 2.961914 -0.5273678
v 37.27115 3.761914 -0.5273678
v 37.74622 2.961914 -1.106238
v 37.74622 3.761914 -1.106238
v 38.09922 2.961914 -1.766665
v 38.09922 3.761914 -1.766665
v 38.3166 2.961914 -2.483271
v 38.3166 3.761914 -2.483271
v 38.39 2.961914 -3.228516
v 38.39 3.761914 -3.228516
v 38.3166 2.961914 -3.97376
v 38.3166 3.761914 -3.97376
v 38.09922 2.961914 -4.690366
v 38.09922 3.761914 -4.690366
v 37.74621 2.961914 -5.350794
v 37.74621 3.761914 -5.350794
v 37.27115 2.961914 -5.929663
v 37.27115 3.761914 -5.929663
v 36.69228 2.961914 -6.404729
v 36.69228 3.761914 -6.404729
v 36.03185 2.961914 -6.757735
v 36.03185 3.761914 -6.757735
v 35.31525 2.961914 -6.975115
v 35.31525 3.761914 -6.975115
v 34.57 2.961914 -7.048515
v 34.57 3.761914 -7.048515
v 33.82475 2.961914 -6.975115
v 33.82475 3.761914 -6.975115
v 33.10815 2.961914 -6.757735
v 33.10815 3.761914 -6.757735
v 32.44772 2.961914 -6.40473
v 32.44772 3.761914 -6.40473
v 31.86885 2.961914 -5.929664
v 31.86885 3.761914 -5.929664
v 31.39379 2.961914 -5.350794
v 31.39379 3.761914 -5.350794
v 31.04078 2.961914 -4.690366
v 31.04078 3.761914 -4.690366
v 30.8234 2.961914 -3.97376
v 30.8234 3.761914 -3.97376
v 30.75 4.561914 -3.228516
v 30.8234 4.561914 -2.483271
v 31.04078 4.561914 -1.766665
v 31.39379 4.561914 -1.106237
v 31.86885 4.561914 -0.5273678
v 32.44772 4.561914 -0.05230188
v 33.10815 4.561914 0.300704
v 33.82475 4.561914 0.518084
v 34.57 4.561914 0.5914843
v 35.31525 4.561914 0.518084
v 36.03185 4.561914 0.3007042
v 36.69228 4.561914 -0.05230165
v 37.27115 4.561914 -0.5273678
v 37.74622 4.561914 -1.106238
v 38.09922 4.561914 -1.766665
v 38.3166 4.561914 -2.483271
v 38.39 4.561914 -3.228516
v 38.3166 4.561914 -3.97376
v 38.09922 4.561914 -4.690366
v 37.74621 4.561914 -5.350794
v 37.27115 4.561914 -5.929663
v 36.69228 4.561914 -6.404729
v 36.03185 4.561914 -6.757735
v 35.31525 4.561914 -6.975115
v 34.57 4.561914 -7.048515
v 33.82475 4.561914 -6.975115
v 33.10815 4.561914 -6.757735
v 32.44772 4.561914 -6.40473
v 31.86885 4.561914 -5.929664
v 31.39379 4.561914 -5.350794
v 31.04078 4.561914 -4.690366
v 30.8234 4.561914 -3.97376
v 30.75 5.361914 -3.228516
v 30.8234 5.361914 -2.483271
v 31.04078 5.361914 -1.766665
v 31.39379 5.361914 -1.106237
v 31.86885 5.361914 -0.5273678
v 32.44772 5.361914 -0.05230188
v 33.10815 5.361914 0.300704
v 33.82475 5.361914 0.518084
v 34.57 5.361914 0.5914843
v 35.31525 5.361914 0.518084
v 36.03185 5.361914 0.3007042
v 36.69228 5.361914 -0.05230165
v 37.27115 5.361914 -0.5273678
v 37.74622 5.361914 -1.106238
v 38.09922 5.361914 -1.766665
v 38.3166 5.361914 -2.483271
v 38.39 5.361914 -3.228516
v 38.3166 5.361914 -3.97376
v 38.09922 5.361914 -4.690366
v 37.74621 5.361914 -5.350794
v 37.27115 5.361914 -5.929663
v 36.69228 5.361914 -6.404729
v 36.03185 5.361914 -6.757735
v 35.31525 5.361914 -6.975115
v 34.57 5.361914 -7.048515
v 33.82475 5.361914 -6.975115
v 33.10815 5.361914 -6.757735
v 32.44772 5.361914 -6.40473
v 31.86885 5.361914 -5.929664
v 31.39379 5.361914 -5.350794
v 31.04078 5.361914 -4.690366
v 30.8234 5.361914 -3.97376
v 30.75 6.161914 -3.228516
v 30.8234 6.161914 -2.483271
v 31.04078 6.161914 -1.766665
v 31.39379 6.161914 -1.106237
v 31.86885 6.161914 -0.5273678
v 32.44772 6.161914 -0.05230188
v 33.10815 6.161914 0.300704
v 33.82475 6.161914 0.518084
v 34.57 6.161914 0.5914843
v 35.31525 6.161914 0.518084
v 36.03185 6.161914 0.3007042
v 36.69228 6.161914 -0.05230165
v 37.27115 6.161914 -0.5273678
v 37.74622 6.161914 -1.106238
v 38.09922 6.161914 -1.766665
v 38.3166 6.161914 -2.483271
v 38.39 6.161914 -3.228516
v 38.3166 6.161914 -3.97376
v 38.09922 6.161914 -4.690366
v 37.74621 6.161914 -5.350794
v 37.27115 6.161914 -5.929663
v 36.69228 6.161914 -6.404729
v 36.03185 6.161914 -6.757735
v 35.31525 6.161914 -6.975115
v 34.57 6.161914 -7.048515
v 33.82475 6.161914 -6.975115
v 33.10815 6.161914 -6.757735
v 32.44772 6.161914 -6.40473
v 31.86885 6.161914 -5.929664
v 31.39379 6.161914 -5.350794
v 31.04078 6.161914 -4.690366
v 30.8234 6.161914 -3.97376
v 30.75 6.961914 -3.228516
v 30.8234 6.961914 -2.483271
v 31.04078 6.961914 -1.766665
v 31.39379 6.961914 -1.106237
v 31.86885 6.961914 -0.5273678
v 32.44772 6.961914 -0.05230188
v 33.10815 6.961914 0.300704
v 33.82475 6.961914 0.518084
v 34.57 6.961914 0.5914843
v 35.31525 6.961914 0.518084
v 36.03185 6.961914 0.3007042
v 36.69228 6.961914 -0.05230165
v 37.27115 6.961914 -0.5273678
v 37.74622 6.961914 -1.106238
v 38.09922 6.961914 -1.766665
v 38.3166 6.961914 -2.483271
v 38.39 6.961914 -3.228516
v 38.3166 6.961914 -3.97376
v 38.09922 6.961914 -4.690366
v 37.74621 6.961914 -5.350794
v 37.27115 6.961914 -5.929663
v 36.69228 6.961914 -6.404729
v 36.03185 6.961914 -6.757735
v 35.31525 6.961914 -6.975115
v 34.57 6.961914 -7.048515
v 33.82475 6.961914 -6.975115
v 33.10815 6.961914 -6.757735
v 32.44772 6.961914 -6.40473
v 31.86885 6.961914 -5.929664
v 31.39379 6.961914 -5.350794
v 31.04078 6.961914 -4.690366
v 30.8234 6.961914 -3.97376
v 34.57 2.961914 -3.228516
v 34.57 6.961914 -3.228516

vt -0.3744256 -2
vt -0.3744256 -1.2
vt 0.3744254 -2
vt 0.3744254 -1.2
vt -0.3744256 -0.4
vt 0.3744254 -0.4
vt -0.3744256 0.4000001
vt 0.3744254 0.4000001
vt -0.3744256 1.2
vt 0.3744254 1.2
vt -0.3744256 2
vt 0.3744254 2
vt -3.746599 0.745245
vt 2.384186E-07 0
vt -3.82 0
vt -3.529219 1.461851
vt -3.176214 2.122278
vt -2.701148 2.701148
vt -2.122278 3.176214
vt -1.46185 3.52922
vt -0.745245 3.7466
vt 4.768372E-07 3.82
vt 0.7452455 3.7466
vt 1.461851 3.52922
vt 2.122278 3.176214
vt 2.701148 2.701148
vt 3.176214 2.122278
vt 3.52922 1.461851
vt 3.7466 0.745245
vt 3.82 -3.33955E-07
vt 3.7466 -0.7452447
vt 3.52922 -1.461851
vt 3.176214 -2.122278
vt 2.701148 -2.701148
vt 2.122279 -3.176213
vt 1.461852 -3.52922
vt 0.7452455 -3.7466
vt 2.384186E-07 -3.82
vt -0.745245 -3.7466
vt -1.461851 -3.529219
vt -2.122277 -3.176214
vt -2.701147 -2.701148
vt -3.176214 -2.122278
vt -3.52922 -1.461851
vt -3.7466 -0.7452447
vt 3.82 0
vt -3.82 -3.33955E-07

vn -0.9994615 0 -0.03281262
vn -1 0 1.372549E-07
vn -0.9866586 0 0.162803
vn -0.9807853 0 0.1950904
vn -0.9359389 0 0.3521624
vn -0.9238794 0 0.3826835
vn -0.8492517 0 0.5279882
vn -0.8314696 0 0.5555702
vn -0.7299281 0 0.6835239
vn -0.7071068 0 0.7071067
vn -0.5825539 0 0.8127921
vn -0.5555702 0 0.8314697
vn -0.4127925 0 0.9108251
vn -0.3826835 0 0.9238795
vn -0.2271677 0 0.9738557
vn -0.1950904 0 0.9807853
vn -0.03281276 0 0.9994615
vn 3.368984E-08 0 1
vn 0.162803 0 0.9866586
vn 0.1950904 0 0.9807853
vn 0.3521623 0 0.935939
vn 0.3826834 0 0.9238795
vn 0.5279882 0 0.8492517
vn 0.5555702 0 0.8314696
vn 0.6835239 0 0.7299282
vn 0.7071067 0 0.7071068
vn 0.8127921 0 0.5825539
vn 0.8314697 0 0.5555701
vn 0.9108251 0 0.4127925
vn 0.9238794 0 0.3826837
vn 0.9738556 0 0.2271679
vn 0.9807853 0 0.1950905
vn 0.9994615 0 0.03281264
vn 1 0 -5.614972E-08
vn 0.9866586 0 -0.1628031
vn 0.9807853 0 -0.1950905
vn 0.9359388 0 -0.3521627
vn 0.9238794 0 -0.3826837
vn 0.8492517 0 -0.5279882
vn 0.8314697 0 -0.5555702
vn 0.7299282 0 -0.6835238
vn 0.7071069 0 -0.7071067
vn 0.5825542 0 -0.8127919
vn 0.5555705 0 -0.8314694
vn 0.4127927 0 -0.910825
vn 0.3826837 0 -0.9238794
vn 0.2271675 0 -0.9738557
vn 0.1950903 0 -0.9807853
vn 0.0328128 0 -0.9994615
vn -1.247772E-09 0 -1
vn -0.1628031 0 -0.9866586
vn -0.1950905 0 -0.9807853
vn -0.3521625 0 -0.9359389
vn -0.3826836 0 -0.9238794
vn -0.5279882 0 -0.8492517
vn -0.5555702 0 -0.8314697
vn -0.6835237 0 -0.7299283
vn -0.7071066 0 -0.707107
vn -0.8127919 0 -0.582554
vn -0.8314695 0 -0.5555704
vn -0.9108251 0 -0.4127925
vn -0.9238794 0 -0.3826835
vn -0.9738557 0 -0.2271675
vn -0.9807853 0 -0.1950902
vn -0.9994615 0 0.03281289
vn -0.9738557 0 0.2271677
vn -0.9108251 0 0.4127925
vn -0.8127921 0 0.5825539
vn -0.6835239 0 0.7299282
vn -0.5279882 0 0.8492517
vn -0.3521624 0 0.9359389
vn -0.162803 0 0.9866586
vn 0.03281283 0 0.9994615
vn 0.2271676 0 0.9738557
vn 0.4127925 0 0.9108251
vn 0.5825539 0 0.8127921
vn 0.7299282 0 0.6835239
vn 0.8492518 0 0.5279881
vn 0.9359388 0 0.3521626
vn 0.9866586 0 0.162803
vn 0.9994615 0 -0.03281277
vn 0.9738556 0 -0.2271679
vn 0.9108251 0 -0.4127925
vn 0.8127921 0 -0.5825539
vn 0.683524 0 -0.7299281
vn 0.5279886 0 -0.8492514
vn 0.3521625 0 -0.9359389
vn 0.162803 0 -0.9866586
vn -0.0328128 0 -0.9994615
vn -0.2271677 0 -0.9738556
vn -0.4127925 0 -0.9108251
vn -0.5825539 0 -0.8127921
vn -0.729928 0 -0.6835241
vn -0.8492516 0 -0.5279884
vn -0.9359389 0 -0.3521624
vn -0.9866586 0 -0.1628028
vn 0 -1 0
vn 0 1 0

usemtl ProBuilderDefault
f 3/3/3 2/2/2 1/1/1
f 3/3/3 4/4/4 2/2/2
f 5/3/5 4/2/4 3/1/3
f 5/3/5 6/4/6 4/2/4
f 7/3/7 6/2/6 5/1/5
f 7/3/7 8/4/8 6/2/6
f 9/3/9 8/2/8 7/1/7
f 9/3/9 10/4/10 8/2/8
f 11/3/11 10/2/10 9/1/9
f 11/3/11 12/4/12 10/2/10
f 13/3/13 12/2/12 11/1/11
f 13/3/13 14/4/14 12/2/12
f 15/3/15 14/2/14 13/1/13
f 15/3/15 16/4/16 14/2/14
f 17/3/17 16/2/16 15/1/15
f 17/3/17 18/4/18 16/2/16
f 19/3/19 18/2/18 17/1/17
f 19/3/19 20/4/20 18/2/18
f 21/3/21 20/2/20 19/1/19
f 21/3/21 22/4/22 20/2/20
f 23/3/23 22/2/22 21/1/21
f 23/3/23 24/4/24 22/2/22
f 25/3/25 24/2/24 23/1/23
f 25/3/25 26/4/26 24/2/24
f 27/3/27 26/2/26 25/1/25
f 27/3/27 28/4/28 26/2/26
f 29/3/29 28/2/28 27/1/27
f 29/3/29 30/4/30 28/2/28
f 31/3/31 30/2/30 29/1/29
f 31/3/31 32/4/32 30/2/30
f 33/3/33 32/2/32 31/1/31
f 33/3/33 34/4/34 32/2/32
f 35/3/35 34/2/34 33/1/33
f 35/3/35 36/4/36 34/2/34
f 37/3/37 36/2/36 35/1/35
f 37/3/37 38/4/38 36/2/36
f 39/3/39 38/2/38 37/1/37
f 39/3/39 40/4/40 38/2/38
f 41/3/41 40/2/40 39/1/39
f 41/3/41 42/4/42 40/2/40
f 43/3/43 42/2/42 41/1/41
f 43/3/43 44/4/44 42/2/42
f 45/3/45 44/2/44 43/1/43
f 45/3/45 46/4/46 44/2/44
f 47/3/47 46/2/46 45/1/45
f 47/3/47 48/4/48 46/2/46
f 49/3/49 48/2/48 47/1/47
f 49/3/49 50/4/50 48/2/48
f 51/3/51 50/2/50 49/1/49
f 51/3/51 52/4/52 50/2/50
f 53/3/53 52/2/52 51/1/51
f 53/3/53 54/4/54 52/2/52
f 55/3/55 54/2/54 53/1/53
f 55/3/55 56/4/56 54/2/54
f 57/3/57 56/2/56 55/1/55
f 57/3/57 58/4/58 56/2/56
f 59/3/59 58/2/58 57/1/57
f 59/3/59 60/4/60 58/2/58
f 61/3/61 60/2/60 59/1/59
f 61/3/61 62/4/62 60/2/60
f 63/3/63 62/2/62 61/1/61
f 63/3/63 64/4/64 62/2/62
f 1/3/1 64/2/64 63/1/63
f 1/3/1 2/4/2 64/2/64
f 4/4/4 65/5/2 2/2/2
f 4/4/4 66/6/4 65/5/2
f 6/4/6 66/5/4 4/2/4
f 6/4/6 67/6/6 66/5/4
f 8/4/8 67/5/6 6/2/6
f 8/4/8 68/6/8 67/5/6
f 10/4/10 68/5/8 8/2/8
f 10/4/10 69/6/10 68/5/8
f 12/4/12 69/5/10 10/2/10
f 12/4/12 70/6/12 69/5/10
f 14/4/14 70/5/12 12/2/12
f 14/4/14 71/6/14 70/5/12
f 16/4/16 71/5/14 14/2/14
f 16/4/16 72/6/16 71/5/14
f 18/4/18 72/5/16 16/2/16
f 18/4/18 73/6/18 72/5/16
f 20/4/20 73/5/18 18/2/18
f 20/4/20 74/6/20 73/5/18
f 22/4/22 74/5/20 20/2/20
f 22/4/22 75/6/22 74/5/20
f 24/4/24 75/5/22 22/2/22
f 24/4/24 76/6/24 75/5/22
f 26/4/26 76/5/24 24/2/24
f 26/4/26 77/6/26 76/5/24
f 28/4/28 77/5/26 26/2/26
f 28/4/28 78/6/28 77/5/26
f 30/4/30 78/5/28 28/2/28
f 30/4/30 79/6/30 78/5/28
f 32/4/32 79/5/30 30/2/30
f 32/4/32 80/6/32 79/5/30
f 34/4/34 80/5/32 32/2/32
f 34/4/34 81/6/34 80/5/32
f 36/4/36 81/5/34 34/2/34
f 36/4/36 82/6/36 81/5/34
f 38/4/38 82/5/36 36/2/36
f 38/4/38 83/6/38 82/5/36
f 40/4/40 83/5/38 38/2/38
f 40/4/40 84/6/40 83/5/38
f 42/4/42 84/5/40 40/2/40
f 42/4/42 85/6/42 84/5/40
f 44/4/44 85/5/42 42/2/42
f 44/4/44 86/6/44 85/5/42
f 46/4/46 86/5/44 44/2/44
f 46/4/46 87/6/46 86/5/44
f 48/4/48 87/5/46 46/2/46
f 48/4/48 88/6/48 87/5/46
f 50/4/50 88/5/48 48/2/48
f 50/4/50 89/6/50 88/5/48
f 52/4/52 89/5/50 50/2/50
f 52/4/52 90/6/52 89/5/50
f 54/4/54 90/5/52 52/2/52
f 54/4/54 91/6/54 90/5/52
f 56/4/56 91/5/54 54/2/54
f 56/4/56 92/6/56 91/5/54
f 58/4/58 92/5/56 56/2/56
f 58/4/58 93/6/58 92/5/56
f 60/4/60 93/5/58 58/2/58
f 60/4/60 94/6/60 93/5/58
f 62/4/62 94/5/60 60/2/60
f 62/4/62 95/6/62 94/5/60
f 64/4/64 95/5/62 62/2/62
f 64/4/64 96/6/64 95/5/62
f 2/4/2 96/5/64 64/2/64
f 2/4/2 65/6/2 96/5/64
f 66/6/4 97/7/2 65/5/2
f 66/6/4 98/8/4 97/7/2
f 67/6/6 98/7/4 66/5/4
f 67/6/6 99/8/6 98/7/4
f 68/6/8 99/7/6 67/5/6
f 68/6/8 100/8/8 99/7/6
f 69/6/10 100/7/8 68/5/8
f 69/6/10 101/8/10 100/7/8
f 70/6/12 101/7/10 69/5/10
f 70/6/12 102/8/12 101/7/10
f 71/6/14 102/7/12 70/5/12
f 71/6/14 103/8/14 102/7/12
f 72/6/16 103/7/14 71/5/14
f 72/6/16 104/8/16 103/7/14
f 73/6/18 104/7/16 72/5/16
f 73/6/18 105/8/18 104/7/16
f 74/6/20 105/7/18 73/5/18
f 74/6/20 106/8/20 105/7/18
f 75/6/22 106/7/20 74/5/20
f 75/6/22 107/8/22 106/7/20
f 76/6/24 107/7/22 75/5/22
f 76/6/24 108/8/24 107/7/22
f 77/6/26 108/7/24 76/5/24
f 77/6/26 109/8/26 108/7/24
f 78/6/28 109/7/26 77/5/26
f 78/6/28 110/8/28 109/7/26
f 79/6/30 110/7/28 78/5/28
f 79/6/30 111/8/30 110/7/28
f 80/6/32 111/7/30 79/5/30
f 80/6/32 112/8/32 111/7/30
f 81/6/34 112/7/32 80/5/32
f 81/6/34 113/8/34 112/7/32
f 82/6/36 113/7/34 81/5/34
f 82/6/36 114/8/36 113/7/34
f 83/6/38 114/7/36 82/5/36
f 83/6/38 115/8/38 114/7/36
f 84/6/40 115/7/38 83/5/38
f 84/6/40 116/8/40 115/7/38
f 85/6/42 116/7/40 84/5/40
f 85/6/42 117/8/42 116/7/40
f 86/6/44 117/7/42 85/5/42
f 86/6/44 118/8/44 117/7/42
f 87/6/46 118/7/44 86/5/44
f 87/6/46 119/8/46 118/7/44
f 88/6/48 119/7/46 87/5/46
f 88/6/48 120/8/48 119/7/46
f 89/6/50 120/7/48 88/5/48
f 89/6/50 121/8/50 120/7/48
f 90/6/52 121/7/50 89/5/50
f 90/6/52 122/8/52 121/7/50
f 91/6/54 122/7/52 90/5/52
f 91/6/54 123/8/54 122/7/52
f 92/6/56 123/7/54 91/5/54
f 92/6/56 124/8/56 123/7/54
f 93/6/58 124/7/56 92/5/56
f 93/6/58 125/8/58 124/7/56
f 94/6/60 125/7/58 93/5/58
f 94/6/60 126/8/60 125/7/58
f 95/6/62 126/7/60 94/5/60
f 95/6/62 127/8/62 126/7/60
f 96/6/64 127/7/62 95/5/62
f 96/6/64 128/8/64 127/7/62
f 65/6/2 128/7/64 96/5/64
f 65/6/2 97/8/2 128/7/64
f 98/8/4 129/9/2 97/7/2
f 98/8/4 130/10/4 129/9/2
f 99/8/6 130/9/4 98/7/4
f 99/8/6 131/10/6 130/9/4
f 100/8/8 131/9/6 99/7/6
f 100/8/8 132/10/8 131/9/6
f 101/8/10 132/9/8 100/7/8
f 101/8/10 133/10/10 132/9/8
f 102/8/12 133/9/10 101/7/10
f 102/8/12 134/10/12 133/9/10
f 103/8/14 134/9/12 102/7/12
f 103/8/14 135/10/14 134/9/12
f 104/8/16 135/9/14 103/7/14
f 104/8/16 136/10/16 135/9/14
f 105/8/18 136/9/16 104/7/16
f 105/8/18 137/10/18 136/9/16
f 106/8/20 137/9/18 105/7/18
f 106/8/20 138/10/20 137/9/18
f 107/8/22 138/9/20 106/7/20
f 107/8/22 139/10/22 138/9/20
f 108/8/24 139/9/22 107/7/22
f 108/8/24 140/10/24 139/9/22
f 109/8/26 140/9/24 108/7/24
f 109/8/26 141/10/26 140/9/24
f 110/8/28 141/9/26 109/7/26
f 110/8/28 142/10/28 141/9/26
f 111/8/30 142/9/28 110/7/28
f 111/8/30 143/10/30 142/9/28
f 112/8/32 143/9/30 111/7/30
f 112/8/32 144/10/32 143/9/30
f 113/8/34 144/9/32 112/7/32
f 113/8/34 145/10/34 144/9/32
f 114/8/36 145/9/34 113/7/34
f 114/8/36 146/10/36 145/9/34
f 115/8/38 146/9/36 114/7/36
f 115/8/38 147/10/38 146/9/36
f 116/8/40 147/9/38 115/7/38
f 116/8/40 148/10/40 147/9/38
f 117/8/42 148/9/40 116/7/40
f 117/8/42 149/10/42 148/9/40
f 118/8/44 149/9/42 117/7/42
f 118/8/44 150/10/44 149/9/42
f 119/8/46 150/9/44 118/7/44
f 119/8/46 151/10/46 150/9/44
f 120/8/48 151/9/46 119/7/46
f 120/8/48 152/10/48 151/9/46
f 121/8/50 152/9/48 120/7/48
f 121/8/50 153/10/50 152/9/48
f 122/8/52 153/9/50 121/7/50
f 122/8/52 154/10/52 153/9/50
f 123/8/54 154/9/52 122/7/52
f 123/8/54 155/10/54 154/9/52
f 124/8/56 155/9/54 123/7/54
f 124/8/56 156/10/56 155/9/54
f 125/8/58 156/9/56 124/7/56
f 125/8/58 157/10/58 156/9/56
f 126/8/60 157/9/58 125/7/58
f 126/8/60 158/10/60 157/9/58
f 127/8/62 158/9/60 126/7/60
f 127/8/62 159/10/62 158/9/60
f 128/8/64 159/9/62 127/7/62
f 128/8/64 160/10/64 159/9/62
f 97/8/2 160/9/64 128/7/64
f 97/8/2 129/10/2 160/9/64
f 130/10/4 161/11/65 129/9/2
f 130/10/4 162/12/66 161/11/65
f 131/10/6 162/11/66 130/9/4
f 131/10/6 163/12/67 162/11/66
f 132/10/8 163/11/67 131/9/6
f 132/10/8 164/12/68 163/11/67
f 133/10/10 164/11/68 132/9/8
f 133/10/10 165/12/69 164/11/68
f 134/10/12 165/11/69 133/9/10
f 134/10/12 166/12/70 165/11/69
f 135/10/14 166/11/70 134/9/12
f 135/10/14 167/12/71 166/11/70
f 136/10/16 167/11/71 135/9/14
f 136/10/16 168/12/72 167/11/71
f 137/10/18 168/11/72 136/9/16
f 137/10/18 169/12/73 168/11/72
f 138/10/20 169/11/73 137/9/18
f 138/10/20 170/12/74 169/11/73
f 139/10/22 170/11/74 138/9/20
f 139/10/22 171/12/75 170/11/74
f 140/10/24 171/11/75 139/9/22
f 140/10/24 172/12/76 171/11/75
f 141/10/26 172/11/76 140/9/24
f 141/10/26 173/12/77 172/11/76
f 142/10/28 173/11/77 141/9/26
f 142/10/28 174/12/78 173/11/77
f 143/10/30 174/11/78 142/9/28
f 143/10/30 175/12/79 174/11/78
f 144/10/32 175/11/79 143/9/30
f 144/10/32 176/12/80 175/11/79
f 145/10/34 176/11/80 144/9/32
f 145/10/34 177/12/81 176/11/80
f 146/10/36 177/11/81 145/9/34
f 146/10/36 178/12/82 177/11/81
f 147/10/38 178/11/82 146/9/36
f 147/10/38 179/12/83 178/11/82
f 148/10/40 179/11/83 147/9/38
f 148/10/40 180/12/84 179/11/83
f 149/10/42 180/11/84 148/9/40
f 149/10/42 181/12/85 180/11/84
f 150/10/44 181/11/85 149/9/42
f 150/10/44 182/12/86 181/11/85
f 151/10/46 182/11/86 150/9/44
f 151/10/46 183/12/87 182/11/86
f 152/10/48 183/11/87 151/9/46
f 152/10/48 184/12/88 183/11/87
f 153/10/50 184/11/88 152/9/48
f 153/10/50 185/12/89 184/11/88
f 154/10/52 185/11/89 153/9/50
f 154/10/52 186/12/90 185/11/89
f 155/10/54 186/11/90 154/9/52
f 155/10/54 187/12/91 186/11/90
f 156/10/56 187/11/91 155/9/54
f 156/10/56 188/12/92 187/11/91
f 157/10/58 188/11/92 156/9/56
f 157/10/58 189/12/93 188/11/92
f 158/10/60 189/11/93 157/9/58
f 158/10/60 190/12/94 189/11/93
f 159/10/62 190/11/94 158/9/60
f 159/10/62 191/12/95 190/11/94
f 160/10/64 191/11/95 159/9/62
f 160/10/64 192/12/96 191/11/95
f 129/10/2 192/11/96 160/9/64
f 129/10/2 161/12/65 192/11/96
f 1/15/97 193/14/97 3/13/97
f 3/13/97 193/14/97 5/16/97
f 5/16/97 193/14/97 7/17/97
f 7/17/97 193/14/97 9/18/97
f 9/18/97 193/14/97 11/19/97
f 11/19/97 193/14/97 13/20/97
f 13/20/97 193/14/97 15/21/97
f 15/21/97 193/14/97 17/22/97
f 17/22/97 193/14/97 19/23/97
f 19/23/97 193/14/97 21/24/97
f 21/24/97 193/14/97 23/25/97
f 23/25/97 193/14/97 25/26/97
f 25/26/97 193/14/97 27/27/97
f 27/27/97 193/14/97 29/28/97
f 29/28/97 193/14/97 31/29/97
f 31/29/97 193/14/97 33/30/97
f 33/30/97 193/14/97 35/31/97
f 35/31/97 193/14/97 37/32/97
f 37/32/97 193/14/97 39/33/97
f 39/33/97 193/14/97 41/34/97
f 41/34/97 193/14/97 43/35/97
f 43/35/97 193/14/97 45/36/97
f 45/36/97 193/14/97 47/37/97
f 47/37/97 193/14/97 49/38/97
f 49/38/97 193/14/97 51/39/97
f 51/39/97 193/14/97 53/40/97
f 53/40/97 193/14/97 55/41/97
f 55/41/97 193/14/97 57/42/97
f 57/42/97 193/14/97 59/43/97
f 59/43/97 193/14/97 61/44/97
f 61/44/97 193/14/97 63/45/97
f 63/45/97 193/14/97 1/15/97
f 162/29/98 194/14/98 161/46/98
f 163/28/98 194/14/98 162/29/98
f 164/27/98 194/14/98 163/28/98
f 165/26/98 194/14/98 164/27/98
f 166/25/98 194/14/98 165/26/98
f 167/24/98 194/14/98 166/25/98
f 168/23/98 194/14/98 167/24/98
f 169/22/98 194/14/98 168/23/98
f 170/21/98 194/14/98 169/22/98
f 171/20/98 194/14/98 170/21/98
f 172/19/98 194/14/98 171/20/98
f 173/18/98 194/14/98 172/19/98
f 174/17/98 194/14/98 173/18/98
f 175/16/98 194/14/98 174/17/98
f 176/13/98 194/14/98 175/16/98
f 177/47/98 194/14/98 176/13/98
f 178/45/98 194/14/98 177/47/98
f 179/44/98 194/14/98 178/45/98
f 180/43/98 194/14/98 179/44/98
f 181/42/98 194/14/98 180/43/98
f 182/41/98 194/14/98 181/42/98
f 183/40/98 194/14/98 182/41/98
f 184/39/98 194/14/98 183/40/98
f 185/38/98 194/14/98 184/39/98
f 186/37/98 194/14/98 185/38/98
f 187/36/98 194/14/98 186/37/98
f 188/35/98 194/14/98 187/36/98
f 189/34/98 194/14/98 188/35/98
f 190/33/98 194/14/98 189/34/98
f 191/32/98 194/14/98 190/33/98
f 192/31/98 194/14/98 191/32/98
f 161/46/98 194/14/98 192/31/98

