# ProBuilder 4.2.3
# https://unity3d.com/unity/features/worldbuilding/probuilder
# 7/22/2021 4:19:24 PM

mtllib ./CX2.mtl
o CX2

g Cylinder
v 3.82 -2 0
v 3.82 -1.2 0
v 3.746599 -2 0.745245
v 3.746599 -1.2 0.745245
v 3.529219 -2 1.461851
v 3.529219 -1.2 1.461851
v 3.176214 -2 2.122278
v 3.176214 -1.2 2.122278
v 2.701148 -2 2.701148
v 2.701148 -1.2 2.701148
v 2.122278 -2 3.176214
v 2.122278 -1.2 3.176214
v 1.46185 -2 3.52922
v 1.46185 -1.2 3.52922
v 0.745245 -2 3.7466
v 0.745245 -1.2 3.7466
v -4.768372E-07 -2 3.82
v -4.768372E-07 -1.2 3.82
v -0.7452455 -2 3.7466
v -0.7452455 -1.2 3.7466
v -1.461851 -2 3.52922
v -1.461851 -1.2 3.52922
v -2.122278 -2 3.176214
v -2.122278 -1.2 3.176214
v -2.701148 -2 2.701148
v -2.701148 -1.2 2.701148
v -3.176214 -2 2.122278
v -3.176214 -1.2 2.122278
v -3.52922 -2 1.461851
v -3.52922 -1.2 1.461851
v -3.7466 -2 0.745245
v -3.7466 -1.2 0.745245
v -3.82 -2 -3.33955E-07
v -3.82 -1.2 -3.33955E-07
v -3.7466 -2 -0.7452447
v -3.7466 -1.2 -0.7452447
v -3.52922 -2 -1.461851
v -3.52922 -1.2 -1.461851
v -3.176214 -2 -2.122278
v -3.176214 -1.2 -2.122278
v -2.701148 -2 -2.701148
v -2.701148 -1.2 -2.701148
v -2.122279 -2 -3.176213
v -2.122279 -1.2 -3.176213
v -1.461852 -2 -3.52922
v -1.461852 -1.2 -3.52922
v -0.7452455 -2 -3.7466
v -0.7452455 -1.2 -3.7466
v -2.384186E-07 -2 -3.82
v -2.384186E-07 -1.2 -3.82
v 0.745245 -2 -3.7466
v 0.745245 -1.2 -3.7466
v 1.461851 -2 -3.529219
v 1.461851 -1.2 -3.529219
v 2.122277 -2 -3.176214
v 2.122277 -1.2 -3.176214
v 2.701147 -2 -2.701148
v 2.701147 -1.2 -2.701148
v 3.176214 -2 -2.122278
v 3.176214 -1.2 -2.122278
v 3.52922 -2 -1.461851
v 3.52922 -1.2 -1.461851
v 3.7466 -2 -0.7452447
v 3.7466 -1.2 -0.7452447
v 3.82 -0.4 0
v 3.746599 -0.4 0.745245
v 3.529219 -0.4 1.461851
v 3.176214 -0.4 2.122278
v 2.701148 -0.4 2.701148
v 2.122278 -0.4 3.176214
v 1.46185 -0.4 3.52922
v 0.745245 -0.4 3.7466
v -4.768372E-07 -0.4 3.82
v -0.7452455 -0.4 3.7466
v -1.461851 -0.4 3.52922
v -2.122278 -0.4 3.176214
v -2.701148 -0.4 2.701148
v -3.176214 -0.4 2.122278
v -3.52922 -0.4 1.461851
v -3.7466 -0.4 0.745245
v -3.82 -0.4 -3.33955E-07
v -3.7466 -0.4 -0.7452447
v -3.52922 -0.4 -1.461851
v -3.176214 -0.4 -2.122278
v -2.701148 -0.4 -2.701148
v -2.122279 -0.4 -3.176213
v -1.461852 -0.4 -3.52922
v -0.7452455 -0.4 -3.7466
v -2.384186E-07 -0.4 -3.82
v 0.745245 -0.4 -3.7466
v 1.461851 -0.4 -3.529219
v 2.122277 -0.4 -3.176214
v 2.701147 -0.4 -2.701148
v 3.176214 -0.4 -2.122278
v 3.52922 -0.4 -1.461851
v 3.7466 -0.4 -0.7452447
v 3.82 0.4000001 0
v 3.746599 0.4000001 0.745245
v 3.529219 0.4000001 1.461851
v 3.176214 0.4000001 2.122278
v 2.701148 0.4000001 2.701148
v 2.122278 0.4000001 3.176214
v 1.46185 0.4000001 3.52922
v 0.745245 0.4000001 3.7466
v -4.768372E-07 0.4000001 3.82
v -0.7452455 0.4000001 3.7466
v -1.461851 0.4000001 3.52922
v -2.122278 0.4000001 3.176214
v -2.701148 0.4000001 2.701148
v -3.176214 0.4000001 2.122278
v -3.52922 0.4000001 1.461851
v -3.7466 0.4000001 0.745245
v -3.82 0.4000001 -3.33955E-07
v -3.7466 0.4000001 -0.7452447
v -3.52922 0.4000001 -1.461851
v -3.176214 0.4000001 -2.122278
v -2.701148 0.4000001 -2.701148
v -2.122279 0.4000001 -3.176213
v -1.461852 0.4000001 -3.52922
v -0.7452455 0.4000001 -3.7466
v -2.384186E-07 0.4000001 -3.82
v 0.745245 0.4000001 -3.7466
v 1.461851 0.4000001 -3.529219
v 2.122277 0.4000001 -3.176214
v 2.701147 0.4000001 -2.701148
v 3.176214 0.4000001 -2.122278
v 3.52922 0.4000001 -1.461851
v 3.7466 0.4000001 -0.7452447
v 3.82 1.2 0
v 3.746599 1.2 0.745245
v 3.529219 1.2 1.461851
v 3.176214 1.2 2.122278
v 2.701148 1.2 2.701148
v 2.122278 1.2 3.176214
v 1.46185 1.2 3.52922
v 0.745245 1.2 3.7466
v -4.768372E-07 1.2 3.82
v -0.7452455 1.2 3.7466
v -1.461851 1.2 3.52922
v -2.122278 1.2 3.176214
v -2.701148 1.2 2.701148
v -3.176214 1.2 2.122278
v -3.52922 1.2 1.461851
v -3.7466 1.2 0.745245
v -3.82 1.2 -3.33955E-07
v -3.7466 1.2 -0.7452447
v -3.52922 1.2 -1.461851
v -3.176214 1.2 -2.122278
v -2.701148 1.2 -2.701148
v -2.122279 1.2 -3.176213
v -1.461852 1.2 -3.52922
v -0.7452455 1.2 -3.7466
v -2.384186E-07 1.2 -3.82
v 0.745245 1.2 -3.7466
v 1.461851 1.2 -3.529219
v 2.122277 1.2 -3.176214
v 2.701147 1.2 -2.701148
v 3.176214 1.2 -2.122278
v 3.52922 1.2 -1.461851
v 3.7466 1.2 -0.7452447
v 3.82 2 0
v 3.746599 2 0.745245
v 3.529219 2 1.461851
v 3.176214 2 2.122278
v 2.701148 2 2.701148
v 2.122278 2 3.176214
v 1.46185 2 3.52922
v 0.745245 2 3.7466
v -4.768372E-07 2 3.82
v -0.7452455 2 3.7466
v -1.461851 2 3.52922
v -2.122278 2 3.176214
v -2.701148 2 2.701148
v -3.176214 2 2.122278
v -3.52922 2 1.461851
v -3.7466 2 0.745245
v -3.82 2 -3.33955E-07
v -3.7466 2 -0.7452447
v -3.52922 2 -1.461851
v -3.176214 2 -2.122278
v -2.701148 2 -2.701148
v -2.122279 2 -3.176213
v -1.461852 2 -3.52922
v -0.7452455 2 -3.7466
v -2.384186E-07 2 -3.82
v 0.745245 2 -3.7466
v 1.461851 2 -3.529219
v 2.122277 2 -3.176214
v 2.701147 2 -2.701148
v 3.176214 2 -2.122278
v 3.52922 2 -1.461851
v 3.7466 2 -0.7452447
v -2.384186E-07 -2 0
v -2.384186E-07 2 0

vt -0.3744256 -2
vt -0.3744256 -1.2
vt 0.3744254 -2
vt 0.3744254 -1.2
vt -0.3744256 -0.4
vt 0.3744254 -0.4
vt -0.3744256 0.4000001
vt 0.3744254 0.4000001
vt -0.3744256 1.2
vt 0.3744254 1.2
vt -0.3744256 2
vt 0.3744254 2
vt -3.746599 0.745245
vt 2.384186E-07 0
vt -3.82 0
vt -3.529219 1.461851
vt -3.176214 2.122278
vt -2.701148 2.701148
vt -2.122278 3.176214
vt -1.46185 3.52922
vt -0.745245 3.7466
vt 4.768372E-07 3.82
vt 0.7452455 3.7466
vt 1.461851 3.52922
vt 2.122278 3.176214
vt 2.701148 2.701148
vt 3.176214 2.122278
vt 3.52922 1.461851
vt 3.7466 0.745245
vt 3.82 -3.33955E-07
vt 3.7466 -0.7452447
vt 3.52922 -1.461851
vt 3.176214 -2.122278
vt 2.701148 -2.701148
vt 2.122279 -3.176213
vt 1.461852 -3.52922
vt 0.7452455 -3.7466
vt 2.384186E-07 -3.82
vt -0.745245 -3.7466
vt -1.461851 -3.529219
vt -2.122277 -3.176214
vt -2.701147 -2.701148
vt -3.176214 -2.122278
vt -3.52922 -1.461851
vt -3.7466 -0.7452447
vt 3.82 0
vt -3.82 -3.33955E-07

vn 0.9994615 0 -0.03281262
vn 1 0 1.372549E-07
vn 0.9866586 0 0.162803
vn 0.9807853 0 0.1950904
vn 0.9359389 0 0.3521624
vn 0.9238794 0 0.3826835
vn 0.8492517 0 0.5279882
vn 0.8314696 0 0.5555702
vn 0.7299281 0 0.6835239
vn 0.7071068 0 0.7071067
vn 0.5825539 0 0.8127921
vn 0.5555702 0 0.8314697
vn 0.4127925 0 0.9108251
vn 0.3826835 0 0.9238795
vn 0.2271677 0 0.9738557
vn 0.1950904 0 0.9807853
vn 0.03281276 0 0.9994615
vn -3.368984E-08 0 1
vn -0.162803 0 0.9866586
vn -0.1950904 0 0.9807853
vn -0.3521623 0 0.935939
vn -0.3826834 0 0.9238795
vn -0.5279882 0 0.8492517
vn -0.5555702 0 0.8314696
vn -0.6835239 0 0.7299282
vn -0.7071067 0 0.7071068
vn -0.8127921 0 0.5825539
vn -0.8314697 0 0.5555701
vn -0.9108251 0 0.4127925
vn -0.9238794 0 0.3826837
vn -0.9738556 0 0.2271679
vn -0.9807853 0 0.1950905
vn -0.9994615 0 0.03281264
vn -1 0 -5.614972E-08
vn -0.9866586 0 -0.1628031
vn -0.9807853 0 -0.1950905
vn -0.9359388 0 -0.3521627
vn -0.9238794 0 -0.3826837
vn -0.8492517 0 -0.5279882
vn -0.8314697 0 -0.5555702
vn -0.7299282 0 -0.6835238
vn -0.7071069 0 -0.7071067
vn -0.5825542 0 -0.8127919
vn -0.5555705 0 -0.8314694
vn -0.4127927 0 -0.910825
vn -0.3826837 0 -0.9238794
vn -0.2271675 0 -0.9738557
vn -0.1950903 0 -0.9807853
vn -0.0328128 0 -0.9994615
vn 1.247772E-09 0 -1
vn 0.1628031 0 -0.9866586
vn 0.1950905 0 -0.9807853
vn 0.3521625 0 -0.9359389
vn 0.3826836 0 -0.9238794
vn 0.5279882 0 -0.8492517
vn 0.5555702 0 -0.8314697
vn 0.6835237 0 -0.7299283
vn 0.7071066 0 -0.707107
vn 0.8127919 0 -0.582554
vn 0.8314695 0 -0.5555704
vn 0.9108251 0 -0.4127925
vn 0.9238794 0 -0.3826835
vn 0.9738557 0 -0.2271675
vn 0.9807853 0 -0.1950902
vn 0.9994615 0 0.03281289
vn 0.9738557 0 0.2271677
vn 0.9108251 0 0.4127925
vn 0.8127921 0 0.5825539
vn 0.6835239 0 0.7299282
vn 0.5279882 0 0.8492517
vn 0.3521624 0 0.9359389
vn 0.162803 0 0.9866586
vn -0.03281283 0 0.9994615
vn -0.2271676 0 0.9738557
vn -0.4127925 0 0.9108251
vn -0.5825539 0 0.8127921
vn -0.7299282 0 0.6835239
vn -0.8492518 0 0.5279881
vn -0.9359388 0 0.3521626
vn -0.9866586 0 0.162803
vn -0.9994615 0 -0.03281277
vn -0.9738556 0 -0.2271679
vn -0.9108251 0 -0.4127925
vn -0.8127921 0 -0.5825539
vn -0.683524 0 -0.7299281
vn -0.5279886 0 -0.8492514
vn -0.3521625 0 -0.9359389
vn -0.162803 0 -0.9866586
vn 0.0328128 0 -0.9994615
vn 0.2271677 0 -0.9738556
vn 0.4127925 0 -0.9108251
vn 0.5825539 0 -0.8127921
vn 0.729928 0 -0.6835241
vn 0.8492516 0 -0.5279884
vn 0.9359389 0 -0.3521624
vn 0.9866586 0 -0.1628028
vn 0 -1 0
vn 0 1 0

usemtl ProBuilderDefault
f 1/1/1 2/2/2 3/3/3
f 2/2/2 4/4/4 3/3/3
f 3/1/3 4/2/4 5/3/5
f 4/2/4 6/4/6 5/3/5
f 5/1/5 6/2/6 7/3/7
f 6/2/6 8/4/8 7/3/7
f 7/1/7 8/2/8 9/3/9
f 8/2/8 10/4/10 9/3/9
f 9/1/9 10/2/10 11/3/11
f 10/2/10 12/4/12 11/3/11
f 11/1/11 12/2/12 13/3/13
f 12/2/12 14/4/14 13/3/13
f 13/1/13 14/2/14 15/3/15
f 14/2/14 16/4/16 15/3/15
f 15/1/15 16/2/16 17/3/17
f 16/2/16 18/4/18 17/3/17
f 17/1/17 18/2/18 19/3/19
f 18/2/18 20/4/20 19/3/19
f 19/1/19 20/2/20 21/3/21
f 20/2/20 22/4/22 21/3/21
f 21/1/21 22/2/22 23/3/23
f 22/2/22 24/4/24 23/3/23
f 23/1/23 24/2/24 25/3/25
f 24/2/24 26/4/26 25/3/25
f 25/1/25 26/2/26 27/3/27
f 26/2/26 28/4/28 27/3/27
f 27/1/27 28/2/28 29/3/29
f 28/2/28 30/4/30 29/3/29
f 29/1/29 30/2/30 31/3/31
f 30/2/30 32/4/32 31/3/31
f 31/1/31 32/2/32 33/3/33
f 32/2/32 34/4/34 33/3/33
f 33/1/33 34/2/34 35/3/35
f 34/2/34 36/4/36 35/3/35
f 35/1/35 36/2/36 37/3/37
f 36/2/36 38/4/38 37/3/37
f 37/1/37 38/2/38 39/3/39
f 38/2/38 40/4/40 39/3/39
f 39/1/39 40/2/40 41/3/41
f 40/2/40 42/4/42 41/3/41
f 41/1/41 42/2/42 43/3/43
f 42/2/42 44/4/44 43/3/43
f 43/1/43 44/2/44 45/3/45
f 44/2/44 46/4/46 45/3/45
f 45/1/45 46/2/46 47/3/47
f 46/2/46 48/4/48 47/3/47
f 47/1/47 48/2/48 49/3/49
f 48/2/48 50/4/50 49/3/49
f 49/1/49 50/2/50 51/3/51
f 50/2/50 52/4/52 51/3/51
f 51/1/51 52/2/52 53/3/53
f 52/2/52 54/4/54 53/3/53
f 53/1/53 54/2/54 55/3/55
f 54/2/54 56/4/56 55/3/55
f 55/1/55 56/2/56 57/3/57
f 56/2/56 58/4/58 57/3/57
f 57/1/57 58/2/58 59/3/59
f 58/2/58 60/4/60 59/3/59
f 59/1/59 60/2/60 61/3/61
f 60/2/60 62/4/62 61/3/61
f 61/1/61 62/2/62 63/3/63
f 62/2/62 64/4/64 63/3/63
f 63/1/63 64/2/64 1/3/1
f 64/2/64 2/4/2 1/3/1
f 2/2/2 65/5/2 4/4/4
f 65/5/2 66/6/4 4/4/4
f 4/2/4 66/5/4 6/4/6
f 66/5/4 67/6/6 6/4/6
f 6/2/6 67/5/6 8/4/8
f 67/5/6 68/6/8 8/4/8
f 8/2/8 68/5/8 10/4/10
f 68/5/8 69/6/10 10/4/10
f 10/2/10 69/5/10 12/4/12
f 69/5/10 70/6/12 12/4/12
f 12/2/12 70/5/12 14/4/14
f 70/5/12 71/6/14 14/4/14
f 14/2/14 71/5/14 16/4/16
f 71/5/14 72/6/16 16/4/16
f 16/2/16 72/5/16 18/4/18
f 72/5/16 73/6/18 18/4/18
f 18/2/18 73/5/18 20/4/20
f 73/5/18 74/6/20 20/4/20
f 20/2/20 74/5/20 22/4/22
f 74/5/20 75/6/22 22/4/22
f 22/2/22 75/5/22 24/4/24
f 75/5/22 76/6/24 24/4/24
f 24/2/24 76/5/24 26/4/26
f 76/5/24 77/6/26 26/4/26
f 26/2/26 77/5/26 28/4/28
f 77/5/26 78/6/28 28/4/28
f 28/2/28 78/5/28 30/4/30
f 78/5/28 79/6/30 30/4/30
f 30/2/30 79/5/30 32/4/32
f 79/5/30 80/6/32 32/4/32
f 32/2/32 80/5/32 34/4/34
f 80/5/32 81/6/34 34/4/34
f 34/2/34 81/5/34 36/4/36
f 81/5/34 82/6/36 36/4/36
f 36/2/36 82/5/36 38/4/38
f 82/5/36 83/6/38 38/4/38
f 38/2/38 83/5/38 40/4/40
f 83/5/38 84/6/40 40/4/40
f 40/2/40 84/5/40 42/4/42
f 84/5/40 85/6/42 42/4/42
f 42/2/42 85/5/42 44/4/44
f 85/5/42 86/6/44 44/4/44
f 44/2/44 86/5/44 46/4/46
f 86/5/44 87/6/46 46/4/46
f 46/2/46 87/5/46 48/4/48
f 87/5/46 88/6/48 48/4/48
f 48/2/48 88/5/48 50/4/50
f 88/5/48 89/6/50 50/4/50
f 50/2/50 89/5/50 52/4/52
f 89/5/50 90/6/52 52/4/52
f 52/2/52 90/5/52 54/4/54
f 90/5/52 91/6/54 54/4/54
f 54/2/54 91/5/54 56/4/56
f 91/5/54 92/6/56 56/4/56
f 56/2/56 92/5/56 58/4/58
f 92/5/56 93/6/58 58/4/58
f 58/2/58 93/5/58 60/4/60
f 93/5/58 94/6/60 60/4/60
f 60/2/60 94/5/60 62/4/62
f 94/5/60 95/6/62 62/4/62
f 62/2/62 95/5/62 64/4/64
f 95/5/62 96/6/64 64/4/64
f 64/2/64 96/5/64 2/4/2
f 96/5/64 65/6/2 2/4/2
f 65/5/2 97/7/2 66/6/4
f 97/7/2 98/8/4 66/6/4
f 66/5/4 98/7/4 67/6/6
f 98/7/4 99/8/6 67/6/6
f 67/5/6 99/7/6 68/6/8
f 99/7/6 100/8/8 68/6/8
f 68/5/8 100/7/8 69/6/10
f 100/7/8 101/8/10 69/6/10
f 69/5/10 101/7/10 70/6/12
f 101/7/10 102/8/12 70/6/12
f 70/5/12 102/7/12 71/6/14
f 102/7/12 103/8/14 71/6/14
f 71/5/14 103/7/14 72/6/16
f 103/7/14 104/8/16 72/6/16
f 72/5/16 104/7/16 73/6/18
f 104/7/16 105/8/18 73/6/18
f 73/5/18 105/7/18 74/6/20
f 105/7/18 106/8/20 74/6/20
f 74/5/20 106/7/20 75/6/22
f 106/7/20 107/8/22 75/6/22
f 75/5/22 107/7/22 76/6/24
f 107/7/22 108/8/24 76/6/24
f 76/5/24 108/7/24 77/6/26
f 108/7/24 109/8/26 77/6/26
f 77/5/26 109/7/26 78/6/28
f 109/7/26 110/8/28 78/6/28
f 78/5/28 110/7/28 79/6/30
f 110/7/28 111/8/30 79/6/30
f 79/5/30 111/7/30 80/6/32
f 111/7/30 112/8/32 80/6/32
f 80/5/32 112/7/32 81/6/34
f 112/7/32 113/8/34 81/6/34
f 81/5/34 113/7/34 82/6/36
f 113/7/34 114/8/36 82/6/36
f 82/5/36 114/7/36 83/6/38
f 114/7/36 115/8/38 83/6/38
f 83/5/38 115/7/38 84/6/40
f 115/7/38 116/8/40 84/6/40
f 84/5/40 116/7/40 85/6/42
f 116/7/40 117/8/42 85/6/42
f 85/5/42 117/7/42 86/6/44
f 117/7/42 118/8/44 86/6/44
f 86/5/44 118/7/44 87/6/46
f 118/7/44 119/8/46 87/6/46
f 87/5/46 119/7/46 88/6/48
f 119/7/46 120/8/48 88/6/48
f 88/5/48 120/7/48 89/6/50
f 120/7/48 121/8/50 89/6/50
f 89/5/50 121/7/50 90/6/52
f 121/7/50 122/8/52 90/6/52
f 90/5/52 122/7/52 91/6/54
f 122/7/52 123/8/54 91/6/54
f 91/5/54 123/7/54 92/6/56
f 123/7/54 124/8/56 92/6/56
f 92/5/56 124/7/56 93/6/58
f 124/7/56 125/8/58 93/6/58
f 93/5/58 125/7/58 94/6/60
f 125/7/58 126/8/60 94/6/60
f 94/5/60 126/7/60 95/6/62
f 126/7/60 127/8/62 95/6/62
f 95/5/62 127/7/62 96/6/64
f 127/7/62 128/8/64 96/6/64
f 96/5/64 128/7/64 65/6/2
f 128/7/64 97/8/2 65/6/2
f 97/7/2 129/9/2 98/8/4
f 129/9/2 130/10/4 98/8/4
f 98/7/4 130/9/4 99/8/6
f 130/9/4 131/10/6 99/8/6
f 99/7/6 131/9/6 100/8/8
f 131/9/6 132/10/8 100/8/8
f 100/7/8 132/9/8 101/8/10
f 132/9/8 133/10/10 101/8/10
f 101/7/10 133/9/10 102/8/12
f 133/9/10 134/10/12 102/8/12
f 102/7/12 134/9/12 103/8/14
f 134/9/12 135/10/14 103/8/14
f 103/7/14 135/9/14 104/8/16
f 135/9/14 136/10/16 104/8/16
f 104/7/16 136/9/16 105/8/18
f 136/9/16 137/10/18 105/8/18
f 105/7/18 137/9/18 106/8/20
f 137/9/18 138/10/20 106/8/20
f 106/7/20 138/9/20 107/8/22
f 138/9/20 139/10/22 107/8/22
f 107/7/22 139/9/22 108/8/24
f 139/9/22 140/10/24 108/8/24
f 108/7/24 140/9/24 109/8/26
f 140/9/24 141/10/26 109/8/26
f 109/7/26 141/9/26 110/8/28
f 141/9/26 142/10/28 110/8/28
f 110/7/28 142/9/28 111/8/30
f 142/9/28 143/10/30 111/8/30
f 111/7/30 143/9/30 112/8/32
f 143/9/30 144/10/32 112/8/32
f 112/7/32 144/9/32 113/8/34
f 144/9/32 145/10/34 113/8/34
f 113/7/34 145/9/34 114/8/36
f 145/9/34 146/10/36 114/8/36
f 114/7/36 146/9/36 115/8/38
f 146/9/36 147/10/38 115/8/38
f 115/7/38 147/9/38 116/8/40
f 147/9/38 148/10/40 116/8/40
f 116/7/40 148/9/40 117/8/42
f 148/9/40 149/10/42 117/8/42
f 117/7/42 149/9/42 118/8/44
f 149/9/42 150/10/44 118/8/44
f 118/7/44 150/9/44 119/8/46
f 150/9/44 151/10/46 119/8/46
f 119/7/46 151/9/46 120/8/48
f 151/9/46 152/10/48 120/8/48
f 120/7/48 152/9/48 121/8/50
f 152/9/48 153/10/50 121/8/50
f 121/7/50 153/9/50 122/8/52
f 153/9/50 154/10/52 122/8/52
f 122/7/52 154/9/52 123/8/54
f 154/9/52 155/10/54 123/8/54
f 123/7/54 155/9/54 124/8/56
f 155/9/54 156/10/56 124/8/56
f 124/7/56 156/9/56 125/8/58
f 156/9/56 157/10/58 125/8/58
f 125/7/58 157/9/58 126/8/60
f 157/9/58 158/10/60 126/8/60
f 126/7/60 158/9/60 127/8/62
f 158/9/60 159/10/62 127/8/62
f 127/7/62 159/9/62 128/8/64
f 159/9/62 160/10/64 128/8/64
f 128/7/64 160/9/64 97/8/2
f 160/9/64 129/10/2 97/8/2
f 129/9/2 161/11/65 130/10/4
f 161/11/65 162/12/66 130/10/4
f 130/9/4 162/11/66 131/10/6
f 162/11/66 163/12/67 131/10/6
f 131/9/6 163/11/67 132/10/8
f 163/11/67 164/12/68 132/10/8
f 132/9/8 164/11/68 133/10/10
f 164/11/68 165/12/69 133/10/10
f 133/9/10 165/11/69 134/10/12
f 165/11/69 166/12/70 134/10/12
f 134/9/12 166/11/70 135/10/14
f 166/11/70 167/12/71 135/10/14
f 135/9/14 167/11/71 136/10/16
f 167/11/71 168/12/72 136/10/16
f 136/9/16 168/11/72 137/10/18
f 168/11/72 169/12/73 137/10/18
f 137/9/18 169/11/73 138/10/20
f 169/11/73 170/12/74 138/10/20
f 138/9/20 170/11/74 139/10/22
f 170/11/74 171/12/75 139/10/22
f 139/9/22 171/11/75 140/10/24
f 171/11/75 172/12/76 140/10/24
f 140/9/24 172/11/76 141/10/26
f 172/11/76 173/12/77 141/10/26
f 141/9/26 173/11/77 142/10/28
f 173/11/77 174/12/78 142/10/28
f 142/9/28 174/11/78 143/10/30
f 174/11/78 175/12/79 143/10/30
f 143/9/30 175/11/79 144/10/32
f 175/11/79 176/12/80 144/10/32
f 144/9/32 176/11/80 145/10/34
f 176/11/80 177/12/81 145/10/34
f 145/9/34 177/11/81 146/10/36
f 177/11/81 178/12/82 146/10/36
f 146/9/36 178/11/82 147/10/38
f 178/11/82 179/12/83 147/10/38
f 147/9/38 179/11/83 148/10/40
f 179/11/83 180/12/84 148/10/40
f 148/9/40 180/11/84 149/10/42
f 180/11/84 181/12/85 149/10/42
f 149/9/42 181/11/85 150/10/44
f 181/11/85 182/12/86 150/10/44
f 150/9/44 182/11/86 151/10/46
f 182/11/86 183/12/87 151/10/46
f 151/9/46 183/11/87 152/10/48
f 183/11/87 184/12/88 152/10/48
f 152/9/48 184/11/88 153/10/50
f 184/11/88 185/12/89 153/10/50
f 153/9/50 185/11/89 154/10/52
f 185/11/89 186/12/90 154/10/52
f 154/9/52 186/11/90 155/10/54
f 186/11/90 187/12/91 155/10/54
f 155/9/54 187/11/91 156/10/56
f 187/11/91 188/12/92 156/10/56
f 156/9/56 188/11/92 157/10/58
f 188/11/92 189/12/93 157/10/58
f 157/9/58 189/11/93 158/10/60
f 189/11/93 190/12/94 158/10/60
f 158/9/60 190/11/94 159/10/62
f 190/11/94 191/12/95 159/10/62
f 159/9/62 191/11/95 160/10/64
f 191/11/95 192/12/96 160/10/64
f 160/9/64 192/11/96 129/10/2
f 192/11/96 161/12/65 129/10/2
f 3/13/97 193/14/97 1/15/97
f 5/16/97 193/14/97 3/13/97
f 7/17/97 193/14/97 5/16/97
f 9/18/97 193/14/97 7/17/97
f 11/19/97 193/14/97 9/18/97
f 13/20/97 193/14/97 11/19/97
f 15/21/97 193/14/97 13/20/97
f 17/22/97 193/14/97 15/21/97
f 19/23/97 193/14/97 17/22/97
f 21/24/97 193/14/97 19/23/97
f 23/25/97 193/14/97 21/24/97
f 25/26/97 193/14/97 23/25/97
f 27/27/97 193/14/97 25/26/97
f 29/28/97 193/14/97 27/27/97
f 31/29/97 193/14/97 29/28/97
f 33/30/97 193/14/97 31/29/97
f 35/31/97 193/14/97 33/30/97
f 37/32/97 193/14/97 35/31/97
f 39/33/97 193/14/97 37/32/97
f 41/34/97 193/14/97 39/33/97
f 43/35/97 193/14/97 41/34/97
f 45/36/97 193/14/97 43/35/97
f 47/37/97 193/14/97 45/36/97
f 49/38/97 193/14/97 47/37/97
f 51/39/97 193/14/97 49/38/97
f 53/40/97 193/14/97 51/39/97
f 55/41/97 193/14/97 53/40/97
f 57/42/97 193/14/97 55/41/97
f 59/43/97 193/14/97 57/42/97
f 61/44/97 193/14/97 59/43/97
f 63/45/97 193/14/97 61/44/97
f 1/15/97 193/14/97 63/45/97
f 161/46/98 194/14/98 162/29/98
f 162/29/98 194/14/98 163/28/98
f 163/28/98 194/14/98 164/27/98
f 164/27/98 194/14/98 165/26/98
f 165/26/98 194/14/98 166/25/98
f 166/25/98 194/14/98 167/24/98
f 167/24/98 194/14/98 168/23/98
f 168/23/98 194/14/98 169/22/98
f 169/22/98 194/14/98 170/21/98
f 170/21/98 194/14/98 171/20/98
f 171/20/98 194/14/98 172/19/98
f 172/19/98 194/14/98 173/18/98
f 173/18/98 194/14/98 174/17/98
f 174/17/98 194/14/98 175/16/98
f 175/16/98 194/14/98 176/13/98
f 176/13/98 194/14/98 177/47/98
f 177/47/98 194/14/98 178/45/98
f 178/45/98 194/14/98 179/44/98
f 179/44/98 194/14/98 180/43/98
f 180/43/98 194/14/98 181/42/98
f 181/42/98 194/14/98 182/41/98
f 182/41/98 194/14/98 183/40/98
f 183/40/98 194/14/98 184/39/98
f 184/39/98 194/14/98 185/38/98
f 185/38/98 194/14/98 186/37/98
f 186/37/98 194/14/98 187/36/98
f 187/36/98 194/14/98 188/35/98
f 188/35/98 194/14/98 189/34/98
f 189/34/98 194/14/98 190/33/98
f 190/33/98 194/14/98 191/32/98
f 191/32/98 194/14/98 192/31/98
f 192/31/98 194/14/98 161/46/98

